<mxfile host="app.diagrams.net" agent="Mozilla/5.0 (Macintosh; Intel Mac OS X 10_15_7) AppleWebKit/537.36 (KHTML, like Gecko) Chrome/131.0.0.0 Safari/537.36" version="25.0.3">
  <diagram id="pKDmfLXnfSHfXE5Gqnqo" name="第 1 页">
    <mxGraphModel dx="2261" dy="785" grid="1" gridSize="10" guides="1" tooltips="1" connect="1" arrows="1" fold="1" page="1" pageScale="1" pageWidth="827" pageHeight="1169" math="0" shadow="1">
      <root>
        <mxCell id="0" />
        <mxCell id="1" parent="0" />
        <mxCell id="Pw-yFfIgs6NigDBwQF0H-1" value="" style="shape=crossbar;whiteSpace=wrap;html=1;rounded=1;sketch=1;hachureGap=4;jiggle=2;curveFitting=1;fontFamily=Architects Daughter;fontSource=https%3A%2F%2Ffonts.googleapis.com%2Fcss%3Ffamily%3DArchitects%2BDaughter;" parent="1" vertex="1">
          <mxGeometry x="-40" y="320" width="1080" height="20" as="geometry" />
        </mxCell>
        <mxCell id="Pw-yFfIgs6NigDBwQF0H-21" style="rounded=0;sketch=1;hachureGap=4;jiggle=2;curveFitting=1;orthogonalLoop=1;jettySize=auto;html=1;exitX=1;exitY=0;exitDx=0;exitDy=0;fontFamily=Architects Daughter;fontSource=https%3A%2F%2Ffonts.googleapis.com%2Fcss%3Ffamily%3DArchitects%2BDaughter;edgeStyle=orthogonalEdgeStyle;" parent="1" source="Pw-yFfIgs6NigDBwQF0H-2" target="Pw-yFfIgs6NigDBwQF0H-15" edge="1">
          <mxGeometry relative="1" as="geometry" />
        </mxCell>
        <mxCell id="Pw-yFfIgs6NigDBwQF0H-2" value="" style="rounded=0;whiteSpace=wrap;html=1;sketch=1;hachureGap=4;jiggle=2;curveFitting=1;fontFamily=Architects Daughter;fontSource=https%3A%2F%2Ffonts.googleapis.com%2Fcss%3Ffamily%3DArchitects%2BDaughter;" parent="1" vertex="1">
          <mxGeometry x="110" y="300" width="120" height="30" as="geometry" />
        </mxCell>
        <mxCell id="Pw-yFfIgs6NigDBwQF0H-3" value="" style="rounded=0;whiteSpace=wrap;html=1;sketch=1;hachureGap=4;jiggle=2;curveFitting=1;fontFamily=Architects Daughter;fontSource=https%3A%2F%2Ffonts.googleapis.com%2Fcss%3Ffamily%3DArchitects%2BDaughter;" parent="1" vertex="1">
          <mxGeometry x="310" y="300" width="120" height="30" as="geometry" />
        </mxCell>
        <mxCell id="Pw-yFfIgs6NigDBwQF0H-5" value="" style="rounded=0;whiteSpace=wrap;html=1;sketch=1;hachureGap=4;jiggle=2;curveFitting=1;fontFamily=Architects Daughter;fontSource=https%3A%2F%2Ffonts.googleapis.com%2Fcss%3Ffamily%3DArchitects%2BDaughter;" parent="1" vertex="1">
          <mxGeometry x="510" y="300" width="120" height="30" as="geometry" />
        </mxCell>
        <mxCell id="Pw-yFfIgs6NigDBwQF0H-20" style="edgeStyle=orthogonalEdgeStyle;rounded=0;sketch=1;hachureGap=4;jiggle=2;curveFitting=1;orthogonalLoop=1;jettySize=auto;html=1;exitX=0;exitY=0;exitDx=0;exitDy=0;fontFamily=Architects Daughter;fontSource=https%3A%2F%2Ffonts.googleapis.com%2Fcss%3Ffamily%3DArchitects%2BDaughter;" parent="1" source="Pw-yFfIgs6NigDBwQF0H-7" target="Pw-yFfIgs6NigDBwQF0H-19" edge="1">
          <mxGeometry relative="1" as="geometry" />
        </mxCell>
        <mxCell id="Pw-yFfIgs6NigDBwQF0H-7" value="" style="rounded=0;whiteSpace=wrap;html=1;sketch=1;hachureGap=4;jiggle=2;curveFitting=1;fontFamily=Architects Daughter;fontSource=https%3A%2F%2Ffonts.googleapis.com%2Fcss%3Ffamily%3DArchitects%2BDaughter;" parent="1" vertex="1">
          <mxGeometry x="710" y="300" width="120" height="30" as="geometry" />
        </mxCell>
        <mxCell id="Pw-yFfIgs6NigDBwQF0H-12" style="edgeStyle=orthogonalEdgeStyle;rounded=0;sketch=1;hachureGap=4;jiggle=2;curveFitting=1;orthogonalLoop=1;jettySize=auto;html=1;exitX=0;exitY=0;exitDx=0;exitDy=0;fontFamily=Architects Daughter;fontSource=https%3A%2F%2Ffonts.googleapis.com%2Fcss%3Ffamily%3DArchitects%2BDaughter;" parent="1" source="Pw-yFfIgs6NigDBwQF0H-9" target="Pw-yFfIgs6NigDBwQF0H-11" edge="1">
          <mxGeometry relative="1" as="geometry" />
        </mxCell>
        <mxCell id="Pw-yFfIgs6NigDBwQF0H-9" value="" style="rounded=0;whiteSpace=wrap;html=1;sketch=1;hachureGap=4;jiggle=2;curveFitting=1;fontFamily=Architects Daughter;fontSource=https%3A%2F%2Ffonts.googleapis.com%2Fcss%3Ffamily%3DArchitects%2BDaughter;" parent="1" vertex="1">
          <mxGeometry x="350" y="160" width="240" height="30" as="geometry" />
        </mxCell>
        <mxCell id="Pw-yFfIgs6NigDBwQF0H-11" value="&lt;font data-font-src=&quot;https://fonts.googleapis.com/css?family=Monaco%2C+monospace&quot; face=&quot;Monaco, monospace&quot;&gt;left = newINterbers[0]&lt;/font&gt;" style="text;html=1;align=center;verticalAlign=middle;whiteSpace=wrap;rounded=0;fontFamily=Architects Daughter;fontSource=https%3A%2F%2Ffonts.googleapis.com%2Fcss%3Ffamily%3DArchitects%2BDaughter;" parent="1" vertex="1">
          <mxGeometry x="260" y="100" width="180" height="20" as="geometry" />
        </mxCell>
        <mxCell id="Pw-yFfIgs6NigDBwQF0H-13" value="&lt;font face=&quot;Monaco, monospace&quot;&gt;right= newINterbers[0]&lt;/font&gt;" style="text;html=1;align=center;verticalAlign=middle;whiteSpace=wrap;rounded=0;fontFamily=Architects Daughter;fontSource=https%3A%2F%2Ffonts.googleapis.com%2Fcss%3Ffamily%3DArchitects%2BDaughter;" parent="1" vertex="1">
          <mxGeometry x="490" y="100" width="180" height="20" as="geometry" />
        </mxCell>
        <mxCell id="Pw-yFfIgs6NigDBwQF0H-14" style="edgeStyle=orthogonalEdgeStyle;rounded=0;sketch=1;hachureGap=4;jiggle=2;curveFitting=1;orthogonalLoop=1;jettySize=auto;html=1;exitX=1;exitY=0;exitDx=0;exitDy=0;entryX=0.55;entryY=1.05;entryDx=0;entryDy=0;entryPerimeter=0;fontFamily=Architects Daughter;fontSource=https%3A%2F%2Ffonts.googleapis.com%2Fcss%3Ffamily%3DArchitects%2BDaughter;" parent="1" source="Pw-yFfIgs6NigDBwQF0H-9" target="Pw-yFfIgs6NigDBwQF0H-13" edge="1">
          <mxGeometry relative="1" as="geometry" />
        </mxCell>
        <mxCell id="Pw-yFfIgs6NigDBwQF0H-15" value="&lt;font data-font-src=&quot;https://fonts.googleapis.com/css?family=Monaco%2C+monospace&quot; face=&quot;Monaco, monospace&quot;&gt;Interval[i][1] &amp;lt; left&lt;/font&gt;" style="text;html=1;align=center;verticalAlign=middle;whiteSpace=wrap;rounded=0;fontFamily=Architects Daughter;fontSource=https%3A%2F%2Ffonts.googleapis.com%2Fcss%3Ffamily%3DArchitects%2BDaughter;" parent="1" vertex="1">
          <mxGeometry x="60" y="92.5" width="190" height="37.5" as="geometry" />
        </mxCell>
        <mxCell id="Pw-yFfIgs6NigDBwQF0H-16" value="&lt;font data-font-src=&quot;https://fonts.googleapis.com/css?family=Monaco%2C+monospace&quot; face=&quot;Monaco, monospace&quot;&gt;左边没有重叠，直接加到结果里：&lt;/font&gt;&lt;div&gt;&lt;font data-font-src=&quot;https://fonts.googleapis.com/css?family=Monaco%2C+monospace&quot; face=&quot;Monaco, monospace&quot;&gt;intervals[i][1] &amp;lt; left&amp;nbsp;&lt;/font&gt;&lt;/div&gt;&lt;div&gt;&lt;font data-font-src=&quot;https://fonts.googleapis.com/css?family=Monaco%2C+monospace&quot; face=&quot;Monaco, monospace&quot;&gt;{&lt;/font&gt;&lt;/div&gt;&lt;div&gt;&lt;font data-font-src=&quot;https://fonts.googleapis.com/css?family=Monaco%2C+monospace&quot; face=&quot;Monaco, monospace&quot;&gt;&amp;nbsp; &amp;nbsp;res.add(intervals[i])&lt;/font&gt;&lt;/div&gt;&lt;div&gt;&lt;font data-font-src=&quot;https://fonts.googleapis.com/css?family=Monaco%2C+monospace&quot; face=&quot;Monaco, monospace&quot;&gt;}&lt;/font&gt;&lt;/div&gt;" style="text;html=1;align=left;verticalAlign=middle;resizable=0;points=[];autosize=1;strokeColor=none;fillColor=none;fontFamily=Architects Daughter;fontSource=https%3A%2F%2Ffonts.googleapis.com%2Fcss%3Ffamily%3DArchitects%2BDaughter;" parent="1" vertex="1">
          <mxGeometry x="330" y="370" width="200" height="90" as="geometry" />
        </mxCell>
        <mxCell id="Pw-yFfIgs6NigDBwQF0H-17" value="&lt;font face=&quot;Monaco, monospace&quot; data-font-src=&quot;https://fonts.googleapis.com/css?family=Monaco%2C+monospace&quot;&gt;有重叠，找到右边重叠处：&lt;/font&gt;&lt;div&gt;&lt;font face=&quot;Monaco, monospace&quot; data-font-src=&quot;https://fonts.googleapis.com/css?family=Monaco%2C+monospace&quot;&gt;intervals[i][0] &amp;lt;= right&amp;nbsp;&lt;/font&gt;&lt;/div&gt;&lt;div&gt;&lt;font face=&quot;Monaco, monospace&quot; data-font-src=&quot;https://fonts.googleapis.com/css?family=Monaco%2C+monospace&quot;&gt;{&amp;nbsp;&lt;/font&gt;&lt;div&gt;&lt;span style=&quot;background-color: initial;&quot;&gt;&lt;font data-font-src=&quot;https://fonts.googleapis.com/css?family=Monaco%2C+monospace&quot; face=&quot;Monaco, monospace&quot;&gt;&amp;nbsp; &amp;nbsp;left = min(intervals[i][0], left),&amp;nbsp;&lt;/font&gt;&lt;/span&gt;&lt;/div&gt;&lt;div&gt;&lt;span style=&quot;background-color: initial;&quot;&gt;&lt;font data-font-src=&quot;https://fonts.googleapis.com/css?family=Monaco%2C+monospace&quot; face=&quot;Monaco, monospace&quot;&gt;&amp;nbsp; &amp;nbsp;right = max(intervals[i][1], right)&lt;/font&gt;&lt;/span&gt;&lt;/div&gt;&lt;div&gt;&lt;font data-font-src=&quot;https://fonts.googleapis.com/css?family=Monaco%2C+monospace&quot; face=&quot;Monaco, monospace&quot;&gt;}&lt;br&gt;&lt;/font&gt;&lt;/div&gt;&lt;div&gt;&lt;span style=&quot;background-color: initial;&quot;&gt;&lt;font data-font-src=&quot;https://fonts.googleapis.com/css?family=Monaco%2C+monospace&quot; face=&quot;Monaco, monospace&quot;&gt;res.add(new int[]{left, right})&lt;/font&gt;&lt;/span&gt;&lt;/div&gt;&lt;/div&gt;" style="text;html=1;align=left;verticalAlign=middle;resizable=0;points=[];autosize=1;strokeColor=none;fillColor=none;fontFamily=Architects Daughter;fontSource=https%3A%2F%2Ffonts.googleapis.com%2Fcss%3Ffamily%3DArchitects%2BDaughter;" parent="1" vertex="1">
          <mxGeometry x="330" y="455" width="300" height="120" as="geometry" />
        </mxCell>
        <mxCell id="Pw-yFfIgs6NigDBwQF0H-18" value="&lt;font data-font-src=&quot;https://fonts.googleapis.com/css?family=Monaco%2C+monospace&quot; face=&quot;Monaco, monospace&quot;&gt;右边没有重叠，直接加到结果里&lt;/font&gt;&lt;div&gt;&lt;span style=&quot;background-color: initial; font-family: Monaco, monospace;&quot;&gt;res.add(intervals[i])&lt;/span&gt;&lt;/div&gt;" style="text;html=1;align=left;verticalAlign=middle;resizable=0;points=[];autosize=1;strokeColor=none;fillColor=none;fontFamily=Architects Daughter;fontSource=https%3A%2F%2Ffonts.googleapis.com%2Fcss%3Ffamily%3DArchitects%2BDaughter;" parent="1" vertex="1">
          <mxGeometry x="330" y="595" width="190" height="40" as="geometry" />
        </mxCell>
        <mxCell id="Pw-yFfIgs6NigDBwQF0H-19" value="&lt;font data-font-src=&quot;https://fonts.googleapis.com/css?family=Monaco%2C+monospace&quot; face=&quot;Monaco, monospace&quot;&gt;Interval[i][0] &amp;lt;= right&lt;/font&gt;" style="text;html=1;align=center;verticalAlign=middle;whiteSpace=wrap;rounded=0;fontFamily=Architects Daughter;fontSource=https%3A%2F%2Ffonts.googleapis.com%2Fcss%3Ffamily%3DArchitects%2BDaughter;" parent="1" vertex="1">
          <mxGeometry x="710" y="92.5" width="190" height="37.5" as="geometry" />
        </mxCell>
        <mxCell id="d3M1Q0JsFoAeivlyI-YI-1" value="&lt;font style=&quot;font-size: 18px;&quot; data-font-src=&quot;https://fonts.googleapis.com/css?family=Monaco%2C+monospace&quot; face=&quot;Monaco, monospace&quot;&gt;0057插入区间&lt;/font&gt;" style="text;html=1;align=center;verticalAlign=middle;whiteSpace=wrap;rounded=0;fontFamily=Architects Daughter;fontSource=https%3A%2F%2Ffonts.googleapis.com%2Fcss%3Ffamily%3DArchitects%2BDaughter;" vertex="1" parent="1">
          <mxGeometry x="-40" y="30" width="130" height="40" as="geometry" />
        </mxCell>
        <mxCell id="d3M1Q0JsFoAeivlyI-YI-2" value="&lt;font data-font-src=&quot;https://fonts.googleapis.com/css?family=Monaco%2C+monospace&quot; face=&quot;Monaco, monospace&quot;&gt;1&lt;/font&gt;" style="text;html=1;align=center;verticalAlign=middle;whiteSpace=wrap;rounded=0;fontFamily=Architects Daughter;fontSource=https%3A%2F%2Ffonts.googleapis.com%2Fcss%3Ffamily%3DArchitects%2BDaughter;" vertex="1" parent="1">
          <mxGeometry x="80" y="340" width="60" height="30" as="geometry" />
        </mxCell>
        <mxCell id="d3M1Q0JsFoAeivlyI-YI-3" value="&lt;font face=&quot;Monaco, monospace&quot;&gt;2&lt;/font&gt;" style="text;html=1;align=center;verticalAlign=middle;whiteSpace=wrap;rounded=0;fontFamily=Architects Daughter;fontSource=https%3A%2F%2Ffonts.googleapis.com%2Fcss%3Ffamily%3DArchitects%2BDaughter;" vertex="1" parent="1">
          <mxGeometry x="200" y="340" width="60" height="30" as="geometry" />
        </mxCell>
        <mxCell id="d3M1Q0JsFoAeivlyI-YI-4" value="&lt;font face=&quot;Monaco, monospace&quot;&gt;3&lt;/font&gt;" style="text;html=1;align=center;verticalAlign=middle;whiteSpace=wrap;rounded=0;fontFamily=Architects Daughter;fontSource=https%3A%2F%2Ffonts.googleapis.com%2Fcss%3Ffamily%3DArchitects%2BDaughter;" vertex="1" parent="1">
          <mxGeometry x="280" y="340" width="60" height="30" as="geometry" />
        </mxCell>
        <mxCell id="d3M1Q0JsFoAeivlyI-YI-5" value="&lt;font face=&quot;Monaco, monospace&quot;&gt;4&lt;/font&gt;" style="text;html=1;align=center;verticalAlign=middle;whiteSpace=wrap;rounded=0;fontFamily=Architects Daughter;fontSource=https%3A%2F%2Ffonts.googleapis.com%2Fcss%3Ffamily%3DArchitects%2BDaughter;" vertex="1" parent="1">
          <mxGeometry x="320" y="200" width="60" height="30" as="geometry" />
        </mxCell>
        <mxCell id="d3M1Q0JsFoAeivlyI-YI-6" value="&lt;font face=&quot;Monaco, monospace&quot;&gt;6&lt;/font&gt;" style="text;html=1;align=center;verticalAlign=middle;whiteSpace=wrap;rounded=0;fontFamily=Architects Daughter;fontSource=https%3A%2F%2Ffonts.googleapis.com%2Fcss%3Ffamily%3DArchitects%2BDaughter;" vertex="1" parent="1">
          <mxGeometry x="400" y="340" width="60" height="30" as="geometry" />
        </mxCell>
        <mxCell id="d3M1Q0JsFoAeivlyI-YI-7" value="&lt;font face=&quot;Monaco, monospace&quot;&gt;8&lt;/font&gt;" style="text;html=1;align=center;verticalAlign=middle;whiteSpace=wrap;rounded=0;fontFamily=Architects Daughter;fontSource=https%3A%2F%2Ffonts.googleapis.com%2Fcss%3Ffamily%3DArchitects%2BDaughter;" vertex="1" parent="1">
          <mxGeometry x="480" y="340" width="60" height="30" as="geometry" />
        </mxCell>
        <mxCell id="d3M1Q0JsFoAeivlyI-YI-8" value="&lt;font face=&quot;Monaco, monospace&quot;&gt;10&lt;/font&gt;" style="text;html=1;align=center;verticalAlign=middle;whiteSpace=wrap;rounded=0;fontFamily=Architects Daughter;fontSource=https%3A%2F%2Ffonts.googleapis.com%2Fcss%3Ffamily%3DArchitects%2BDaughter;" vertex="1" parent="1">
          <mxGeometry x="600" y="340" width="60" height="30" as="geometry" />
        </mxCell>
        <mxCell id="d3M1Q0JsFoAeivlyI-YI-9" value="&lt;font face=&quot;Monaco, monospace&quot;&gt;9&lt;/font&gt;" style="text;html=1;align=center;verticalAlign=middle;whiteSpace=wrap;rounded=0;fontFamily=Architects Daughter;fontSource=https%3A%2F%2Ffonts.googleapis.com%2Fcss%3Ffamily%3DArchitects%2BDaughter;" vertex="1" parent="1">
          <mxGeometry x="560" y="200" width="60" height="30" as="geometry" />
        </mxCell>
        <mxCell id="d3M1Q0JsFoAeivlyI-YI-10" value="&lt;font face=&quot;Monaco, monospace&quot;&gt;12&lt;/font&gt;" style="text;html=1;align=center;verticalAlign=middle;whiteSpace=wrap;rounded=0;fontFamily=Architects Daughter;fontSource=https%3A%2F%2Ffonts.googleapis.com%2Fcss%3Ffamily%3DArchitects%2BDaughter;" vertex="1" parent="1">
          <mxGeometry x="680" y="340" width="60" height="30" as="geometry" />
        </mxCell>
        <mxCell id="d3M1Q0JsFoAeivlyI-YI-11" value="&lt;font face=&quot;Monaco, monospace&quot;&gt;14&lt;/font&gt;" style="text;html=1;align=center;verticalAlign=middle;whiteSpace=wrap;rounded=0;fontFamily=Architects Daughter;fontSource=https%3A%2F%2Ffonts.googleapis.com%2Fcss%3Ffamily%3DArchitects%2BDaughter;" vertex="1" parent="1">
          <mxGeometry x="800" y="340" width="60" height="30" as="geometry" />
        </mxCell>
      </root>
    </mxGraphModel>
  </diagram>
</mxfile>
